<mxfile host="65bd71144e">
    <diagram id="XLGdq-fokk2LQcQoX3o3" name="페이지-1">
        <mxGraphModel dx="761" dy="293" grid="1" gridSize="10" guides="1" tooltips="1" connect="1" arrows="1" fold="1" page="1" pageScale="1" pageWidth="1169" pageHeight="827" math="0" shadow="0">
            <root>
                <mxCell id="0"/>
                <mxCell id="1" parent="0"/>
                <mxCell id="74" style="edgeStyle=none;html=1;exitX=0.5;exitY=1;exitDx=0;exitDy=0;entryX=0.5;entryY=0;entryDx=0;entryDy=0;" parent="1" source="77" target="78" edge="1">
                    <mxGeometry relative="1" as="geometry"/>
                </mxCell>
                <mxCell id="75" style="edgeStyle=none;html=1;exitX=0.5;exitY=1;exitDx=0;exitDy=0;entryX=0.5;entryY=0;entryDx=0;entryDy=0;" parent="1" source="77" target="79" edge="1">
                    <mxGeometry relative="1" as="geometry"/>
                </mxCell>
                <mxCell id="76" style="edgeStyle=none;html=1;exitX=1;exitY=0.5;exitDx=0;exitDy=0;entryX=0;entryY=0.5;entryDx=0;entryDy=0;" parent="1" source="77" target="81" edge="1">
                    <mxGeometry relative="1" as="geometry"/>
                </mxCell>
                <mxCell id="77" value="&lt;span style=&quot;font-size: 20px&quot;&gt;Listener&lt;/span&gt;" style="rounded=0;whiteSpace=wrap;html=1;" parent="1" vertex="1">
                    <mxGeometry x="90" y="120" width="120" height="60" as="geometry"/>
                </mxCell>
                <mxCell id="78" value="&lt;font style=&quot;font-size: 20px&quot;&gt;RFID&lt;/font&gt;" style="rounded=0;whiteSpace=wrap;html=1;" parent="1" vertex="1">
                    <mxGeometry x="90" y="230" width="120" height="60" as="geometry"/>
                </mxCell>
                <mxCell id="79" value="&lt;font style=&quot;font-size: 20px&quot;&gt;Monitor&lt;/font&gt;" style="rounded=0;whiteSpace=wrap;html=1;" parent="1" vertex="1">
                    <mxGeometry x="260" y="230" width="120" height="60" as="geometry"/>
                </mxCell>
                <mxCell id="80" style="edgeStyle=none;html=1;exitX=1;exitY=0.5;exitDx=0;exitDy=0;entryX=0;entryY=0.5;entryDx=0;entryDy=0;" parent="1" source="81" target="83" edge="1">
                    <mxGeometry relative="1" as="geometry"/>
                </mxCell>
                <mxCell id="81" value="&lt;span style=&quot;font-size: 20px&quot;&gt;Controller&lt;/span&gt;" style="rounded=0;whiteSpace=wrap;html=1;" parent="1" vertex="1">
                    <mxGeometry x="260" y="120" width="120" height="60" as="geometry"/>
                </mxCell>
                <mxCell id="82" style="edgeStyle=none;html=1;exitX=1;exitY=0.25;exitDx=0;exitDy=0;entryX=0;entryY=0.25;entryDx=0;entryDy=0;" parent="1" source="83" target="85" edge="1">
                    <mxGeometry relative="1" as="geometry"/>
                </mxCell>
                <mxCell id="83" value="&lt;span style=&quot;font-size: 20px&quot;&gt;Service&lt;/span&gt;" style="rounded=0;whiteSpace=wrap;html=1;" parent="1" vertex="1">
                    <mxGeometry x="430" y="120" width="120" height="60" as="geometry"/>
                </mxCell>
                <mxCell id="84" style="edgeStyle=none;html=1;exitX=0;exitY=0.75;exitDx=0;exitDy=0;entryX=1;entryY=0.75;entryDx=0;entryDy=0;" parent="1" source="85" target="83" edge="1">
                    <mxGeometry relative="1" as="geometry"/>
                </mxCell>
                <mxCell id="85" value="&lt;span style=&quot;font-size: 20px&quot;&gt;DB&lt;/span&gt;" style="rounded=0;whiteSpace=wrap;html=1;" parent="1" vertex="1">
                    <mxGeometry x="600" y="120" width="120" height="60" as="geometry"/>
                </mxCell>
            </root>
        </mxGraphModel>
    </diagram>
    <diagram id="19f_JdTd6HP0lb-jRkVk" name="페이지-2">
        <mxGraphModel dx="761" dy="293" grid="1" gridSize="10" guides="1" tooltips="1" connect="1" arrows="1" fold="1" page="1" pageScale="1" pageWidth="1169" pageHeight="827" background="none" math="0" shadow="0">
            <root>
                <mxCell id="yumsSh1SdZoKE3vdfmOR-0"/>
                <mxCell id="yumsSh1SdZoKE3vdfmOR-1" parent="yumsSh1SdZoKE3vdfmOR-0"/>
                <mxCell id="yumsSh1SdZoKE3vdfmOR-2" style="edgeStyle=none;html=1;entryX=0.5;entryY=0;entryDx=0;entryDy=0;fontSize=15;" parent="yumsSh1SdZoKE3vdfmOR-1" source="yumsSh1SdZoKE3vdfmOR-5" target="yumsSh1SdZoKE3vdfmOR-9" edge="1">
                    <mxGeometry relative="1" as="geometry"/>
                </mxCell>
                <mxCell id="yumsSh1SdZoKE3vdfmOR-3" style="edgeStyle=none;html=1;entryX=0.009;entryY=0.135;entryDx=0;entryDy=0;entryPerimeter=0;fontSize=17;" parent="yumsSh1SdZoKE3vdfmOR-1" source="yumsSh1SdZoKE3vdfmOR-5" target="yumsSh1SdZoKE3vdfmOR-18" edge="1">
                    <mxGeometry relative="1" as="geometry"/>
                </mxCell>
                <mxCell id="yumsSh1SdZoKE3vdfmOR-4" style="edgeStyle=none;html=1;entryX=0.129;entryY=1.04;entryDx=0;entryDy=0;entryPerimeter=0;fontSize=15;" parent="yumsSh1SdZoKE3vdfmOR-1" source="yumsSh1SdZoKE3vdfmOR-5" target="yumsSh1SdZoKE3vdfmOR-20" edge="1">
                    <mxGeometry relative="1" as="geometry"/>
                </mxCell>
                <mxCell id="EHP3UBoSBjGyNPG6HIaZ-3" style="edgeStyle=none;html=1;" parent="yumsSh1SdZoKE3vdfmOR-1" source="yumsSh1SdZoKE3vdfmOR-5" target="EHP3UBoSBjGyNPG6HIaZ-4" edge="1">
                    <mxGeometry relative="1" as="geometry"/>
                </mxCell>
                <mxCell id="yumsSh1SdZoKE3vdfmOR-5" value="Listener" style="swimlane;fontStyle=0;childLayout=stackLayout;horizontal=1;startSize=26;fillColor=none;horizontalStack=0;resizeParent=1;resizeParentMax=0;resizeLast=0;collapsible=1;marginBottom=0;fontSize=15;" parent="yumsSh1SdZoKE3vdfmOR-1" vertex="1">
                    <mxGeometry x="150" y="480" width="160" height="60" as="geometry"/>
                </mxCell>
                <mxCell id="yumsSh1SdZoKE3vdfmOR-6" value="checkEvent() " style="text;strokeColor=none;fillColor=none;align=left;verticalAlign=top;spacingLeft=4;spacingRight=4;overflow=hidden;rotatable=0;points=[[0,0.5],[1,0.5]];portConstraint=eastwest;fontSize=16;" parent="yumsSh1SdZoKE3vdfmOR-5" vertex="1">
                    <mxGeometry y="26" width="160" height="34" as="geometry"/>
                </mxCell>
                <mxCell id="yumsSh1SdZoKE3vdfmOR-7" style="edgeStyle=none;html=1;entryX=0.529;entryY=1.123;entryDx=0;entryDy=0;entryPerimeter=0;fontSize=15;endArrow=block;endFill=0;exitX=0.25;exitY=0;exitDx=0;exitDy=0;" parent="yumsSh1SdZoKE3vdfmOR-1" source="yumsSh1SdZoKE3vdfmOR-9" target="yumsSh1SdZoKE3vdfmOR-24" edge="1">
                    <mxGeometry relative="1" as="geometry">
                        <mxPoint x="128.87999999999988" y="647.1959999999999" as="targetPoint"/>
                    </mxGeometry>
                </mxCell>
                <mxCell id="yumsSh1SdZoKE3vdfmOR-8" style="edgeStyle=none;html=1;entryX=0.49;entryY=1.056;entryDx=0;entryDy=0;entryPerimeter=0;fontSize=15;endArrow=classic;endFill=1;" parent="yumsSh1SdZoKE3vdfmOR-1" source="yumsSh1SdZoKE3vdfmOR-9" target="yumsSh1SdZoKE3vdfmOR-20" edge="1">
                    <mxGeometry relative="1" as="geometry"/>
                </mxCell>
                <mxCell id="yumsSh1SdZoKE3vdfmOR-9" value="CardReader" style="swimlane;fontStyle=1;align=center;verticalAlign=top;childLayout=stackLayout;horizontal=1;startSize=26;horizontalStack=0;resizeParent=1;resizeParentMax=0;resizeLast=0;collapsible=1;marginBottom=0;fontSize=15;" parent="yumsSh1SdZoKE3vdfmOR-1" vertex="1">
                    <mxGeometry x="120" y="720" width="220" height="86" as="geometry"/>
                </mxCell>
                <mxCell id="yumsSh1SdZoKE3vdfmOR-10" value="isCard()" style="text;strokeColor=none;fillColor=none;align=left;verticalAlign=top;spacingLeft=4;spacingRight=4;overflow=hidden;rotatable=0;points=[[0,0.5],[1,0.5]];portConstraint=eastwest;fontSize=15;" parent="yumsSh1SdZoKE3vdfmOR-9" vertex="1">
                    <mxGeometry y="26" width="220" height="26" as="geometry"/>
                </mxCell>
                <mxCell id="yumsSh1SdZoKE3vdfmOR-11" value="" style="line;strokeWidth=1;fillColor=none;align=left;verticalAlign=middle;spacingTop=-1;spacingLeft=3;spacingRight=3;rotatable=0;labelPosition=right;points=[];portConstraint=eastwest;fontSize=15;" parent="yumsSh1SdZoKE3vdfmOR-9" vertex="1">
                    <mxGeometry y="52" width="220" height="8" as="geometry"/>
                </mxCell>
                <mxCell id="yumsSh1SdZoKE3vdfmOR-12" value="getCardNumber() : DeviceData" style="text;strokeColor=none;fillColor=none;align=left;verticalAlign=top;spacingLeft=4;spacingRight=4;overflow=hidden;rotatable=0;points=[[0,0.5],[1,0.5]];portConstraint=eastwest;fontSize=15;" parent="yumsSh1SdZoKE3vdfmOR-9" vertex="1">
                    <mxGeometry y="60" width="220" height="26" as="geometry"/>
                </mxCell>
                <mxCell id="yumsSh1SdZoKE3vdfmOR-13" value="Monitor" style="swimlane;fontStyle=0;childLayout=stackLayout;horizontal=1;startSize=26;fillColor=none;horizontalStack=0;resizeParent=1;resizeParentMax=0;resizeLast=0;collapsible=1;marginBottom=0;fontSize=15;" parent="yumsSh1SdZoKE3vdfmOR-1" vertex="1">
                    <mxGeometry x="550" y="600" width="160" height="60" as="geometry"/>
                </mxCell>
                <mxCell id="yumsSh1SdZoKE3vdfmOR-14" value="print()" style="text;strokeColor=none;fillColor=none;align=left;verticalAlign=top;spacingLeft=4;spacingRight=4;overflow=hidden;rotatable=0;points=[[0,0.5],[1,0.5]];portConstraint=eastwest;fontSize=17;" parent="yumsSh1SdZoKE3vdfmOR-13" vertex="1">
                    <mxGeometry y="26" width="160" height="34" as="geometry"/>
                </mxCell>
                <mxCell id="yumsSh1SdZoKE3vdfmOR-16" style="edgeStyle=none;html=1;fontSize=15;" parent="yumsSh1SdZoKE3vdfmOR-1" source="yumsSh1SdZoKE3vdfmOR-17" target="yumsSh1SdZoKE3vdfmOR-20" edge="1">
                    <mxGeometry relative="1" as="geometry"/>
                </mxCell>
                <mxCell id="EHP3UBoSBjGyNPG6HIaZ-0" style="edgeStyle=none;html=1;entryX=0.453;entryY=0.976;entryDx=0;entryDy=0;entryPerimeter=0;" parent="yumsSh1SdZoKE3vdfmOR-1" source="yumsSh1SdZoKE3vdfmOR-17" target="yXLGBIXKNA_ujfvwIyK5-4" edge="1">
                    <mxGeometry relative="1" as="geometry"/>
                </mxCell>
                <mxCell id="EHP3UBoSBjGyNPG6HIaZ-1" style="edgeStyle=none;html=1;entryX=0.5;entryY=0;entryDx=0;entryDy=0;" parent="yumsSh1SdZoKE3vdfmOR-1" source="yumsSh1SdZoKE3vdfmOR-17" target="yumsSh1SdZoKE3vdfmOR-13" edge="1">
                    <mxGeometry relative="1" as="geometry"/>
                </mxCell>
                <mxCell id="yumsSh1SdZoKE3vdfmOR-17" value="Controller" style="swimlane;fontStyle=0;childLayout=stackLayout;horizontal=1;startSize=26;fillColor=none;horizontalStack=0;resizeParent=1;resizeParentMax=0;resizeLast=0;collapsible=1;marginBottom=0;fontSize=15;" parent="yumsSh1SdZoKE3vdfmOR-1" vertex="1">
                    <mxGeometry x="424" y="480" width="160" height="60" as="geometry"/>
                </mxCell>
                <mxCell id="yumsSh1SdZoKE3vdfmOR-18" value="updateEvent()" style="text;strokeColor=none;fillColor=none;align=left;verticalAlign=top;spacingLeft=4;spacingRight=4;overflow=hidden;rotatable=0;points=[[0,0.5],[1,0.5]];portConstraint=eastwest;fontSize=16;" parent="yumsSh1SdZoKE3vdfmOR-17" vertex="1">
                    <mxGeometry y="26" width="160" height="34" as="geometry"/>
                </mxCell>
                <mxCell id="yumsSh1SdZoKE3vdfmOR-19" value="DeviceData" style="swimlane;fontStyle=0;childLayout=stackLayout;horizontal=1;startSize=26;fillColor=none;horizontalStack=0;resizeParent=1;resizeParentMax=0;resizeLast=0;collapsible=1;marginBottom=0;fontSize=15;" parent="yumsSh1SdZoKE3vdfmOR-1" vertex="1">
                    <mxGeometry x="320" y="370" width="160" height="76" as="geometry"/>
                </mxCell>
                <mxCell id="yumsSh1SdZoKE3vdfmOR-20" value="devName : std::string&#10;devData : std::vector" style="text;strokeColor=none;fillColor=none;align=left;verticalAlign=top;spacingLeft=4;spacingRight=4;overflow=hidden;rotatable=0;points=[[0,0.5],[1,0.5]];portConstraint=eastwest;fontSize=15;" parent="yumsSh1SdZoKE3vdfmOR-19" vertex="1">
                    <mxGeometry y="26" width="160" height="50" as="geometry"/>
                </mxCell>
                <mxCell id="yumsSh1SdZoKE3vdfmOR-21" value="RFID" style="swimlane;fontStyle=1;align=center;verticalAlign=top;childLayout=stackLayout;horizontal=1;startSize=26;horizontalStack=0;resizeParent=1;resizeParentMax=0;resizeLast=0;collapsible=1;marginBottom=0;fontSize=15;" parent="yumsSh1SdZoKE3vdfmOR-1" vertex="1">
                    <mxGeometry x="30" y="574" width="160" height="86" as="geometry"/>
                </mxCell>
                <mxCell id="yumsSh1SdZoKE3vdfmOR-22" value="request()" style="text;strokeColor=none;fillColor=none;align=left;verticalAlign=top;spacingLeft=4;spacingRight=4;overflow=hidden;rotatable=0;points=[[0,0.5],[1,0.5]];portConstraint=eastwest;fontSize=15;" parent="yumsSh1SdZoKE3vdfmOR-21" vertex="1">
                    <mxGeometry y="26" width="160" height="26" as="geometry"/>
                </mxCell>
                <mxCell id="yumsSh1SdZoKE3vdfmOR-23" value="" style="line;strokeWidth=1;fillColor=none;align=left;verticalAlign=middle;spacingTop=-1;spacingLeft=3;spacingRight=3;rotatable=0;labelPosition=right;points=[];portConstraint=eastwest;fontSize=15;" parent="yumsSh1SdZoKE3vdfmOR-21" vertex="1">
                    <mxGeometry y="52" width="160" height="8" as="geometry"/>
                </mxCell>
                <mxCell id="yumsSh1SdZoKE3vdfmOR-24" value="get_card_serail()" style="text;strokeColor=none;fillColor=none;align=left;verticalAlign=top;spacingLeft=4;spacingRight=4;overflow=hidden;rotatable=0;points=[[0,0.5],[1,0.5]];portConstraint=eastwest;fontSize=15;" parent="yumsSh1SdZoKE3vdfmOR-21" vertex="1">
                    <mxGeometry y="60" width="160" height="26" as="geometry"/>
                </mxCell>
                <mxCell id="rVGMIeEtYFX2jaJdgsJs-1" value="&lt;font&gt;&lt;font style=&quot;font-size: 16px&quot;&gt;Database&lt;br&gt;&lt;/font&gt;memberList.bin&lt;br&gt;&lt;/font&gt;" style="shape=cylinder3;whiteSpace=wrap;html=1;boundedLbl=1;backgroundOutline=1;size=15;" parent="yumsSh1SdZoKE3vdfmOR-1" vertex="1">
                    <mxGeometry x="905" y="574" width="140" height="118" as="geometry"/>
                </mxCell>
                <mxCell id="yXLGBIXKNA_ujfvwIyK5-0" value="MemberInfo" style="swimlane;fontStyle=0;childLayout=stackLayout;horizontal=1;startSize=26;fillColor=none;horizontalStack=0;resizeParent=1;resizeParentMax=0;resizeLast=0;collapsible=1;marginBottom=0;fontSize=15;" parent="yumsSh1SdZoKE3vdfmOR-1" vertex="1">
                    <mxGeometry x="700" y="70" width="180" height="124" as="geometry">
                        <mxRectangle x="800" y="120" width="110" height="26" as="alternateBounds"/>
                    </mxGeometry>
                </mxCell>
                <mxCell id="yXLGBIXKNA_ujfvwIyK5-1" value="id : int&#10;name[10] : char&#10;address[40] : char&#10;phoneNumber[15] : char&#10;cardNum[5] : int" style="text;strokeColor=none;fillColor=none;align=left;verticalAlign=top;spacingLeft=4;spacingRight=4;overflow=hidden;rotatable=0;points=[[0,0.5],[1,0.5]];portConstraint=eastwest;fontSize=15;" parent="yXLGBIXKNA_ujfvwIyK5-0" vertex="1">
                    <mxGeometry y="26" width="180" height="98" as="geometry"/>
                </mxCell>
                <mxCell id="yXLGBIXKNA_ujfvwIyK5-10" style="edgeStyle=none;html=1;exitX=0.5;exitY=0;exitDx=0;exitDy=0;" parent="yumsSh1SdZoKE3vdfmOR-1" source="yXLGBIXKNA_ujfvwIyK5-3" target="yXLGBIXKNA_ujfvwIyK5-1" edge="1">
                    <mxGeometry relative="1" as="geometry"/>
                </mxCell>
                <mxCell id="EHP3UBoSBjGyNPG6HIaZ-2" style="edgeStyle=none;html=1;entryX=0.003;entryY=0.294;entryDx=0;entryDy=0;entryPerimeter=0;" parent="yumsSh1SdZoKE3vdfmOR-1" source="yXLGBIXKNA_ujfvwIyK5-3" target="yXLGBIXKNA_ujfvwIyK5-6" edge="1">
                    <mxGeometry relative="1" as="geometry"/>
                </mxCell>
                <mxCell id="yXLGBIXKNA_ujfvwIyK5-3" value="MembersManage&#10;Service" style="swimlane;fontStyle=0;childLayout=stackLayout;horizontal=1;startSize=40;fillColor=none;horizontalStack=0;resizeParent=1;resizeParentMax=0;resizeLast=0;collapsible=1;marginBottom=0;fontSize=15;" parent="yumsSh1SdZoKE3vdfmOR-1" vertex="1">
                    <mxGeometry x="510" y="310" width="250" height="90" as="geometry"/>
                </mxCell>
                <mxCell id="yXLGBIXKNA_ujfvwIyK5-4" value="updateStateEvent(std::string)&#10;checkCardNumber(int *cardNum)&#10; " style="text;strokeColor=none;fillColor=none;align=left;verticalAlign=top;spacingLeft=4;spacingRight=4;overflow=hidden;rotatable=0;points=[[0,0.5],[1,0.5]];portConstraint=eastwest;fontSize=15;" parent="yXLGBIXKNA_ujfvwIyK5-3" vertex="1">
                    <mxGeometry y="40" width="250" height="50" as="geometry"/>
                </mxCell>
                <mxCell id="yXLGBIXKNA_ujfvwIyK5-9" style="edgeStyle=none;html=1;entryX=0.5;entryY=0;entryDx=0;entryDy=0;entryPerimeter=0;" parent="yumsSh1SdZoKE3vdfmOR-1" source="yXLGBIXKNA_ujfvwIyK5-5" target="rVGMIeEtYFX2jaJdgsJs-1" edge="1">
                    <mxGeometry relative="1" as="geometry">
                        <mxPoint x="900" y="460" as="targetPoint"/>
                    </mxGeometry>
                </mxCell>
                <mxCell id="yXLGBIXKNA_ujfvwIyK5-11" style="edgeStyle=none;html=1;exitX=0.5;exitY=0;exitDx=0;exitDy=0;entryX=0.611;entryY=1;entryDx=0;entryDy=0;entryPerimeter=0;" parent="yumsSh1SdZoKE3vdfmOR-1" source="yXLGBIXKNA_ujfvwIyK5-5" target="yXLGBIXKNA_ujfvwIyK5-1" edge="1">
                    <mxGeometry relative="1" as="geometry"/>
                </mxCell>
                <mxCell id="yXLGBIXKNA_ujfvwIyK5-5" value="MembersEntity" style="swimlane;fontStyle=0;childLayout=stackLayout;horizontal=1;startSize=38;fillColor=none;horizontalStack=0;resizeParent=1;resizeParentMax=0;resizeLast=0;collapsible=1;marginBottom=0;fontSize=15;" parent="yumsSh1SdZoKE3vdfmOR-1" vertex="1">
                    <mxGeometry x="820" y="253" width="310" height="250" as="geometry"/>
                </mxCell>
                <mxCell id="yXLGBIXKNA_ujfvwIyK5-6" value="loadMembersInfo()&#10;addMember(MemberInfo)&#10;delMemberInfo(std::string name)&#10;delMemberInfo(int *cardNum)&#10;printMemberInfo(int id)&#10;printMemberInfo(std::string name)&#10;printMemberInfo(int *cardNum)&#10;findMemberInfo(int *cardNum)&#10;findMemberInfo(std::string name&#10;" style="text;strokeColor=none;fillColor=none;align=left;verticalAlign=top;spacingLeft=4;spacingRight=4;overflow=hidden;rotatable=0;points=[[0,0.5],[1,0.5]];portConstraint=eastwest;fontSize=18;" parent="yXLGBIXKNA_ujfvwIyK5-5" vertex="1">
                    <mxGeometry y="38" width="310" height="212" as="geometry"/>
                </mxCell>
                <mxCell id="yXLGBIXKNA_ujfvwIyK5-12" value="Button" style="swimlane;fontStyle=0;childLayout=stackLayout;horizontal=1;startSize=26;fillColor=none;horizontalStack=0;resizeParent=1;resizeParentMax=0;resizeLast=0;collapsible=1;marginBottom=0;fontSize=15;" parent="yumsSh1SdZoKE3vdfmOR-1" vertex="1">
                    <mxGeometry x="630" y="720" width="160" height="82" as="geometry"/>
                </mxCell>
                <mxCell id="yXLGBIXKNA_ujfvwIyK5-13" value="request()&#10;get_card_serial()" style="text;strokeColor=none;fillColor=none;align=left;verticalAlign=top;spacingLeft=4;spacingRight=4;overflow=hidden;rotatable=0;points=[[0,0.5],[1,0.5]];portConstraint=eastwest;fontSize=17;" parent="yXLGBIXKNA_ujfvwIyK5-12" vertex="1">
                    <mxGeometry y="26" width="160" height="56" as="geometry"/>
                </mxCell>
                <mxCell id="EHP3UBoSBjGyNPG6HIaZ-4" value="ManageButton" style="swimlane;fontStyle=1;align=center;verticalAlign=top;childLayout=stackLayout;horizontal=1;startSize=26;horizontalStack=0;resizeParent=1;resizeParentMax=0;resizeLast=0;collapsible=1;marginBottom=0;fontSize=15;" parent="yumsSh1SdZoKE3vdfmOR-1" vertex="1">
                    <mxGeometry x="365" y="720" width="220" height="86" as="geometry"/>
                </mxCell>
                <mxCell id="EHP3UBoSBjGyNPG6HIaZ-5" value="checkButton() : bool" style="text;strokeColor=none;fillColor=none;align=left;verticalAlign=top;spacingLeft=4;spacingRight=4;overflow=hidden;rotatable=0;points=[[0,0.5],[1,0.5]];portConstraint=eastwest;fontSize=15;" parent="EHP3UBoSBjGyNPG6HIaZ-4" vertex="1">
                    <mxGeometry y="26" width="220" height="26" as="geometry"/>
                </mxCell>
                <mxCell id="EHP3UBoSBjGyNPG6HIaZ-6" value="" style="line;strokeWidth=1;fillColor=none;align=left;verticalAlign=middle;spacingTop=-1;spacingLeft=3;spacingRight=3;rotatable=0;labelPosition=right;points=[];portConstraint=eastwest;fontSize=15;" parent="EHP3UBoSBjGyNPG6HIaZ-4" vertex="1">
                    <mxGeometry y="52" width="220" height="8" as="geometry"/>
                </mxCell>
                <mxCell id="EHP3UBoSBjGyNPG6HIaZ-7" value="getButtonData() : DeviceData" style="text;strokeColor=none;fillColor=none;align=left;verticalAlign=top;spacingLeft=4;spacingRight=4;overflow=hidden;rotatable=0;points=[[0,0.5],[1,0.5]];portConstraint=eastwest;fontSize=15;" parent="EHP3UBoSBjGyNPG6HIaZ-4" vertex="1">
                    <mxGeometry y="60" width="220" height="26" as="geometry"/>
                </mxCell>
                <mxCell id="EHP3UBoSBjGyNPG6HIaZ-8" style="edgeStyle=none;html=1;entryX=-0.006;entryY=0.228;entryDx=0;entryDy=0;entryPerimeter=0;endArrow=blockThin;endFill=0;" parent="yumsSh1SdZoKE3vdfmOR-1" source="EHP3UBoSBjGyNPG6HIaZ-5" target="yXLGBIXKNA_ujfvwIyK5-13" edge="1">
                    <mxGeometry relative="1" as="geometry"/>
                </mxCell>
            </root>
        </mxGraphModel>
    </diagram>
</mxfile>